<?xml version="1.0"?>
<svg width="370" height="89" xmlns="http://www.w3.org/2000/svg" svg="http://www.w3.org/2000/svg">
 <!-- Created with SVG-edit - https://github.com/SVG-Edit/svgedit-->
 <g class="layer">
  <defs>
   <linearGradient id="SvgjsLinearGradient1026">
    <stop id="SvgjsStop1027" offset="0" stop-color="#141A6B"/>
    <stop id="SvgjsStop1028" offset="0.5" stop-color="#29DBD8"/>
    <stop id="SvgjsStop1029" offset="1" stop-color="#141A6B"/>
   </linearGradient>
   <linearGradient id="SvgjsLinearGradient1030">
    <stop id="SvgjsStop1031" offset="0" stop-color="#141A6B"/>
    <stop id="SvgjsStop1032" offset="0.5" stop-color="#29DBD8"/>
    <stop id="SvgjsStop1033" offset="1" stop-color="#141A6B"/>
   </linearGradient>
   <linearGradient id="SvgjsLinearGradient1034">
    <stop id="SvgjsStop1035" offset="0" stop-color="#141A6B"/>
    <stop id="SvgjsStop1036" offset="0.5" stop-color="#29DBD8"/>
    <stop id="SvgjsStop1037" offset="1" stop-color="#141A6B"/>
   </linearGradient>
   <linearGradient id="SvgjsLinearGradient1026">
    <stop id="SvgjsStop1027" offset="0" stop-color="#141A6B"/>
    <stop id="SvgjsStop1028" offset="0.5" stop-color="#29DBD8"/>
    <stop id="SvgjsStop1029" offset="1" stop-color="#141A6B"/>
   </linearGradient>
   <linearGradient id="SvgjsLinearGradient1030">
    <stop id="SvgjsStop1031" offset="0" stop-color="#141A6B"/>
    <stop id="SvgjsStop1032" offset="0.5" stop-color="#29DBD8"/>
    <stop id="SvgjsStop1033" offset="1" stop-color="#141A6B"/>
   </linearGradient>
  </defs>
  <g fill="url(#SvgjsLinearGradient1026)" id="SvgjsG1020">
   <rect fill="#000000" height="1" id="svg_2" opacity="0" width="1" y="0"/>
   <rect fill="#000000" height="5" id="svg_3" width="370" y="84"/>
  </g>
  <g fill="url(#SvgjsLinearGradient1030)" id="SvgjsG1021" transform="matrix(1.08304 0 0 1.08304 294.979 17.3588)">
   <title fill="#000000" xmlns="http://www.w3.org/2000/svg">Shape 24</title>
   <g fill="none" fill-rule="evenodd" id="Page-1" xmlns="http://www.w3.org/2000/svg">
    <g fill="url(#SvgjsLinearGradient1030)" fill-rule="nonzero" id="Artboard" transform="translate(-293.000000, -1115.000000)">
     <g id="Shape-24" transform="translate(293.943000, 1115.592000)">
      <path d="m0,0l49.425,0l0,49.424l-4.32,-6.324l0,-38.779l-40.784,0l0,40.785l8.01,0l7.731,-11.32l2.683,3.947l-7.986,11.691l-14.757,0l-0.002,-49.424l0,0zm27.757,45.106l8.412,0l-11.067,-16.484l10.858,-15.896l3.773,2.379l-9.646,14.121l13.854,20.199l-9.041,0l-7.143,-4.319l0,0zm-15.505,-33.047l6.428,3.045l3.575,5.27l-2.148,3.105l-7.855,-11.42l0,0z" fill="#000000" id="Shape"/>
     </g>
    </g>
   </g>
  </g>
  <g fill="url(#SvgjsLinearGradient1034)" id="SvgjsG1022" transform="matrix(1.60047 0 0 1.60047 -3.26495 5.2514)">
   <path d="m17.32,40.6c-2.76,0 -6.24,-0.64 -9.4,-2.6c-2.84,-1.72 -5.88,-6.04 -5.88,-11.88c0,-2.44 0.64,-6.24 3.72,-9.96c3.52,-4.28 8.04,-5.08 11.64,-5.08c3.32,0 6.4,0.52 9.76,3.16c3.04,2.4 5.48,6.44 5.48,11.96c0,2.92 -0.92,5.96 -3,8.76c-2.6,3.24 -6,5.64 -12.32,5.64zm0.32,-1.88c7.4,0 8.72,-8.92 8.72,-12.2c0,-8.76 -5.76,-13.56 -9.12,-13.56c-0.8,0 -2.8,-0.2 -5.24,2.16c-2.36,2.24 -3.56,6.44 -3.56,9.72c0,10.24 5.88,13.88 9.2,13.88zm18.16,-13.52l5.16,-2.28c0.36,-0.16 0.64,-0.28 0.92,-0.28c0.24,0 0.48,0.12 0.56,0.52l0.32,2.28l0.2,0c1.12,-1.56 3.16,-2.8 5.68,-2.8c2.56,0 3.8,1.16 4.84,2.8l0.2,0c1.36,-1.6 3.32,-2.68 5.36,-2.68c1.8,0 2.64,0.24 3.88,1.52c1.16,1.16 1.72,1.52 1.72,5.48l0,2.88c0,1.36 -0.12,3.56 -0.16,4.4c-0.04,1.12 0.52,1.56 1.16,1.56l0.8,0c0.36,0 0.44,0.08 0.44,0.36l0,0.76c0,0.28 -0.08,0.4 -0.28,0.4c-0.28,0 -1.4,-0.12 -4.32,-0.12c-2.4,0 -3.84,0.12 -4.12,0.12c-0.24,0 -0.32,-0.12 -0.32,-0.48l0,-0.68c0,-0.28 0.12,-0.36 0.24,-0.36l0.36,0c0.28,0 0.76,-0.2 0.8,-0.76c0.08,-0.92 0.2,-2.36 0.2,-3.84l0,-3.84c0,-2.48 -0.12,-3.32 -0.64,-3.88c-0.64,-0.72 -1.04,-0.96 -1.96,-0.96c-1.12,0 -1.92,0.84 -2.4,1.28c-0.6,0.68 -0.6,1.96 -0.6,2.52l0,7.92c0,1.16 0.24,1.56 0.68,1.56l0.72,0c0.36,0 0.44,0.08 0.44,0.36l0,0.72c0,0.32 -0.08,0.44 -0.28,0.44c-0.28,0 -1.32,-0.12 -3.76,-0.12c-2.96,0 -4.32,0.12 -4.56,0.12c-0.2,0 -0.28,-0.12 -0.28,-0.4l0,-0.72c0,-0.32 0.04,-0.4 0.4,-0.4l0.56,0c0.56,0 0.96,-0.52 0.96,-2.84l0,-5.92c0,-2.76 -0.4,-3.68 -0.88,-4.12c-0.36,-0.36 -1,-0.48 -1.88,-0.48c-0.8,0 -1.72,0.56 -2.2,1.24c-0.52,0.8 -0.68,1.72 -0.64,3.24l0,6.44c0,2.04 0.4,2.44 0.84,2.44l0.36,0c0.36,0 0.4,0.08 0.4,0.36l0,0.72c0,0.28 -0.04,0.44 -0.32,0.44c-0.36,0 -1.44,-0.12 -4.28,-0.12c-2.68,0 -3.96,0.12 -4.28,0.12c-0.24,0 -0.32,-0.08 -0.32,-0.36l0,-0.8c0,-0.32 0.04,-0.36 0.48,-0.36l1.12,0c0.4,0 0.72,-0.44 0.76,-1c0.04,-0.68 0.04,-1.68 0.04,-2.72l0,-5.04c0,-1.76 -0.28,-2.4 -1.28,-3l-0.8,-0.48c-0.2,-0.12 -0.28,-0.2 -0.28,-0.32l0,-0.48c0,-0.12 0.08,-0.28 0.24,-0.36zm39.76,-2.08l0.44,1.72l0.32,0c0.44,-0.52 1.16,-1.04 1.92,-1.44c0.88,-0.48 1.76,-0.76 3.08,-0.76c1.56,0 3.08,0.16 4.12,1.12c1.68,1.56 1.8,2.56 1.8,4.56l0,4.24c0,1.36 -0.08,3.24 -0.16,4.64c-0.04,1.2 0.6,1.4 0.96,1.4l1.08,0c0.36,0 0.44,0.12 0.44,0.36l0,0.72c0,0.28 -0.08,0.44 -0.32,0.44c-0.28,0 -1.52,-0.12 -4.72,-0.12c-2.64,0 -3.92,0.12 -4.2,0.12c-0.24,0 -0.32,-0.12 -0.32,-0.44l0,-0.72c0,-0.28 0.12,-0.36 0.52,-0.36l0.44,0c0.28,0 0.64,-0.2 0.72,-0.92c0.16,-1.04 0.24,-2.32 0.24,-4.16l0,-4.28c0,-1.52 -0.12,-2.56 -0.96,-3.32c-0.72,-0.64 -1.28,-0.72 -1.96,-0.72c-0.72,0 -1.24,0.2 -2.04,0.8c-0.48,0.36 -0.8,1.44 -0.8,3.08l-0.08,8.2c0,0.72 0.28,1.32 0.64,1.32l0.52,0c0.32,0 0.4,0.12 0.4,0.4l0,0.76c0,0.24 -0.08,0.36 -0.28,0.36c-0.28,0 -1.36,-0.12 -4,-0.12c-2.84,0 -4.12,0.12 -4.36,0.12c-0.2,0 -0.28,-0.12 -0.28,-0.36l0,-0.8c0,-0.24 0.08,-0.36 0.4,-0.36l0.6,0c0.44,0 1.12,-0.12 1.12,-0.8l0,-8.88c0,-1.2 -0.68,-1.88 -1.6,-2.32l-0.36,-0.16c-0.24,-0.12 -0.28,-0.28 -0.28,-0.44l0,-0.36c0,-0.2 0.16,-0.32 0.36,-0.4l5.12,-2.32c0.32,-0.12 0.6,-0.28 0.92,-0.28c0.24,0 0.48,0.2 0.56,0.48zm23,-6.36c0,1.28 -0.88,2.68 -3.04,2.72c-1.6,0.04 -2.8,-1.04 -2.8,-2.6c0,-1.28 1.32,-2.44 3,-2.44c1.88,0 2.84,1.2 2.84,2.32zm2.8,22.96c0,0.28 -0.08,0.4 -0.36,0.4c-0.32,0 -2.16,-0.12 -5.64,-0.12c-2.32,0 -3.88,0.12 -4.32,0.12c-0.2,0 -0.32,-0.08 -0.32,-0.4l0,-0.8c0,-0.24 0.12,-0.32 0.4,-0.32l1.48,0c0.44,0 0.72,-0.16 0.76,-0.8c0.08,-1.2 0.08,-2.44 0.08,-3.56l-0.08,-5.6c0,-1.12 -0.24,-1.92 -1.92,-2.52c-0.44,-0.16 -0.48,-0.32 -0.48,-0.56l0,-0.44c0,-0.12 0.08,-0.2 0.44,-0.32l5.96,-1.92c0.44,-0.16 0.8,-0.24 1.08,-0.24c0.32,0 0.44,0.2 0.4,0.48c-0.08,0.68 -0.08,3.2 -0.08,6.72l0,4.28c0,1.56 0,3 0.04,3.44c0.08,0.76 0.28,1.04 0.72,1.04l1.44,0c0.32,0 0.4,0.12 0.4,0.36l0,0.76zm11.96,-16.32l0,-9.88l-1.4,0c-1.28,0 -3.68,0.04 -5.36,0.64c-0.88,0.64 -2.64,3.08 -3.64,4.52c-0.12,0.2 -0.24,0.32 -0.4,0.28l-0.88,-0.32c-0.16,-0.04 -0.2,-0.24 -0.16,-0.36c0.44,-1.68 1.76,-6.96 1.92,-7.76c0.12,-0.52 0.32,-0.68 0.6,-0.68s0.4,0.16 0.76,0.6c0.44,0.56 1.2,0.92 2.64,1c2.12,0.12 3.8,0.24 7.96,0.24l2.32,0c4.36,0 6.08,-0.16 7.76,-0.24c0.88,-0.04 2.44,-0.52 2.92,-1c0.4,-0.4 0.64,-0.6 0.92,-0.6s0.4,0.16 0.48,0.64c0.12,0.88 0.88,5.84 1.2,7.96c0.04,0.16 -0.04,0.32 -0.16,0.36l-0.84,0.32c-0.16,0.04 -0.24,-0.08 -0.4,-0.36c-0.88,-1.44 -2.44,-3.52 -3.44,-4.48c-1,-0.6 -4.56,-0.76 -5.48,-0.76l-1.32,0l0,11c0,0.56 0,11.76 0.04,12.36c0.08,1 0.4,1.6 1.36,1.6l1.8,0c0.36,0 0.4,0.12 0.4,0.4l0,0.92c0,0.2 -0.04,0.32 -0.4,0.32c-0.4,0 -1.68,-0.12 -6.12,-0.12c-4.24,0 -5.92,0.12 -6.48,0.12c-0.32,0 -0.36,-0.16 -0.36,-0.48l0,-0.76c0,-0.28 0.04,-0.4 0.28,-0.4l2.04,0c0.8,0 1.28,-0.48 1.36,-1.2c0.08,-0.84 0.08,-13.12 0.08,-13.88zm28.16,5.96l0,-2.12c0,-0.8 -0.08,-1.72 -0.6,-2.2c-0.4,-0.36 -1.04,-0.48 -1.68,-0.48c-0.72,0 -1.4,0.16 -2.12,0.64c-0.6,0.4 -0.12,1.08 -0.12,2.36c0,1.36 -1,2.28 -2.6,2.28c-0.92,0 -1.72,-0.56 -1.72,-1.44s0.28,-2.08 1.12,-2.8c1.68,-1.52 4.44,-2.96 7.68,-2.96c2.56,0 3.24,0.4 4.08,1.16c0.88,0.8 1.12,1.96 1.12,3.4l0.08,7.96c0.04,2.08 0.16,2.72 0.92,2.72c0.56,0 1,-0.44 1.16,-0.72c0.16,-0.24 0.28,-0.28 0.4,-0.2l0.56,0.32c0.16,0.08 0.28,0.2 0.12,0.56c-0.36,0.84 -1.56,2.72 -4.04,2.72c-1.56,0 -3.04,-0.56 -3.8,-2.44l-0.2,0c-1,0.92 -1.84,1.48 -3.44,2.08c-0.8,0.28 -1.72,0.36 -2.88,0.36c-1.4,0 -2.64,-1.52 -2.64,-3.68c0,-1.76 0.84,-3.6 3.44,-4.88c3.12,-1.48 4.12,-1.92 5.16,-2.64zm0.04,7.28l0,-5.68c-1.96,1.12 -3.6,1.72 -3.6,4.48c0,1.84 0.84,2.6 1.72,2.64c1.08,-0.08 1.88,-1.08 1.88,-1.44zm21.16,-12.4l0.56,2.96c0.04,0.2 0,0.28 -0.16,0.36l-0.72,0.32c-0.12,0.08 -0.24,0.04 -0.4,-0.12l-2.24,-2.4c-0.52,-0.52 -1.28,-1.16 -2.48,-1.16s-2.36,0.8 -2.36,2.16c0.08,1.4 0.56,1.8 3.52,2.6c1.96,0.52 2.92,0.8 4.12,2.08c1.04,1.04 1.28,2 1.28,3.4c0,3.56 -2.8,6.12 -7.16,6.12c-2.24,0 -4.2,-0.8 -4.68,-1.16c-0.16,-0.12 -0.2,-0.28 -0.24,-0.52l-0.52,-3.84c0,-0.2 0.12,-0.28 0.28,-0.32l0.72,-0.2c0.12,-0.04 0.2,0 0.28,0.16l1.6,2.36c0.72,1.04 1.64,2.04 3.48,2.04c1.48,0 2.36,-1.04 2.36,-2.44c0,-1.6 -1.16,-2.12 -3.76,-2.92c-2.84,-0.84 -4.88,-2.2 -4.88,-5.08c0,-1.88 0.56,-3.44 2.08,-4.56c1.6,-1.16 2.72,-1.44 4.4,-1.44c2.16,0 3.48,0.48 4.2,0.84c0.6,0.28 0.68,0.48 0.72,0.76zm5.44,13.4l0,-20.64c0,-1.32 -0.16,-2.28 -2.16,-2.88c-0.4,-0.12 -0.56,-0.28 -0.56,-0.4l0,-0.72c0,-0.16 0.12,-0.32 0.52,-0.4c2.08,-0.36 4.84,-1.24 5.8,-1.56c0.76,-0.36 1.24,-0.52 1.56,-0.52s0.4,0.2 0.36,0.68c-0.16,1.92 -0.16,7.8 -0.2,13.16l-0.04,5.84c0.44,0 0.84,-0.16 1.32,-0.6c1.68,-1.56 3.56,-3.68 3.56,-4.28c0,-0.48 -0.52,-0.72 -0.92,-0.72c-0.28,0 -0.32,-0.12 -0.32,-0.36l0,-0.84c0,-0.2 0.08,-0.32 0.28,-0.32c0.24,0 1.68,0.12 4.28,0.12c2.4,0 3.4,-0.12 3.68,-0.12c0.16,0 0.24,0.12 0.24,0.36l0,0.84c0,0.24 -0.08,0.32 -0.24,0.32l-0.48,0c-0.48,0 -1.28,0.24 -2.28,0.68c-1.24,0.56 -4.28,3.24 -5.12,4.08c1.48,1.76 6.28,7.76 7.44,8.64c0.64,0.48 1.68,0.6 2.12,0.6c0.24,0 0.32,0.08 0.32,0.36l0,0.8c0,0.24 -0.08,0.36 -0.36,0.36c-0.32,0 -1.44,-0.12 -4.72,-0.12c-2.36,0 -4.04,0.12 -4.36,0.12c-0.2,0 -0.28,-0.12 -0.28,-0.48l0,-0.64c0,-0.2 0.08,-0.32 0.24,-0.32l0.28,0c0.32,0 0.4,-0.2 0.4,-0.48c0,-0.4 -3.12,-4.6 -4.28,-6.12c-0.32,-0.4 -0.64,-0.48 -0.88,-0.48l0,5.96c0,0.76 0.36,1.04 0.76,1.04l0.76,0c0.28,0 0.36,0.08 0.36,0.32l0,0.84c0,0.24 -0.08,0.36 -0.32,0.36s-1.56,-0.12 -4.12,-0.12c-2.8,0 -4.2,0.12 -4.48,0.12c-0.12,0 -0.2,-0.16 -0.2,-0.4l0,-0.76c0,-0.28 0.12,-0.36 0.4,-0.36l0.76,0c0.52,0 0.88,-0.44 0.88,-0.96z" fill="#000000" id="svg_1"/>
  </g>
 </g>
</svg>