<svg viewBox="0 0 1024 1024" xmlns="http://www.w3.org/2000/svg"><path d="M832 152h-64c-22.09 0-40 17.91-40 40s17.91 40 40 40h24v688H232V232h24c22.09 0 40-17.91 40-40s-17.91-40-40-40h-64c-22.09 0-40 17.91-40 40v768c.01 22.087 17.913 39.99 40 40h640c22.083-.02 39.98-17.917 40-39.998V192c-.01-22.087-17.913-39.99-40-40zm-92.813 321.594h-228.25c-22.09 0-40 17.91-40 40s17.91 40 40 40h228.25c22.09 0 40-17.91 40-40s-17.91-40-40-40zm-296.03-42.47c-7.09-6.5-16.58-10.483-27-10.483-11.664 0-22.162 4.992-29.475 12.956l-.026.03-68.78 75.167-2.753-2.73c-7.23-7.177-17.19-11.612-28.188-11.612-22.1 0-40.018 17.918-40.018 40.02 0 11.104 4.523 21.153 11.828 28.403l32.315 32.066.707.464.48.66c2.434 1.978 5.195 3.71 8.157 5.083l.242.1c1.117.794 2.413 1.605 3.755 2.34l.21.107c4.33 1.79 9.358 2.84 14.626 2.87h.012c2.238-.294 4.222-.716 6.146-1.278l-.286.072c3.48-.284 6.7-.977 9.747-2.036l-.275.083c2.157-1.2 4.01-2.45 5.745-3.838l-.08.062c2.82-1.454 5.25-3.097 7.465-4.986l-.054.045.43-.65.663-.476 96.905-105.938c6.514-7.085 10.508-16.577 10.508-27.003 0-11.667-5.002-22.166-12.977-29.47l-.03-.027zm69.905 261.5c-22.09 0-40 17.91-40 40s17.91 40 40 40h228.25c22.09 0 40-17.908 40-40s-17.91-40-40-40zm-264 40v.016c0 45.848 37.167 83.016 83.016 83.016s83.016-37.167 83.016-83.016c0-45.848-37.167-83.016-83.016-83.016h-.016c-45.817.054-82.946 37.182-83 82.995v.004zM352 295.97h320c22.09 0 40-17.91 40-40s-17.91-40-40-40h-36.387c7.76-16.416 12.318-35.652 12.386-55.946V160c0-75.11-60.89-136-136-136S376 84.89 376 160c.068 20.318 4.626 39.554 12.733 56.79l-.348-.822h-36.387c-22.09 0-40 17.91-40 40s17.91 40 40 40zM456 160v-.03c0-30.93 25.072-56 56-56s56 25.07 56 56c0 30.927-25.072 56-56 56-30.9-.04-55.944-25.07-56-55.964V160z"/></svg>